<?xml version="1.0" standalone="no"?>
<!DOCTYPE svg PUBLIC "-//W3C//DTD SVG 20010904//EN"
 "http://www.w3.org/TR/2001/REC-SVG-20010904/DTD/svg10.dtd">
<svg version="1.0" xmlns="http://www.w3.org/2000/svg"
 width="380.000000pt" height="380.000000pt" viewBox="0 0 380.000000 380.000000"
 preserveAspectRatio="xMidYMid meet">

<g transform="translate(0.000000,380.000000) scale(0.100000,-0.100000)"
fill="#000000" stroke="none">
<path d="M1132 3628 c-103 -15 -192 -81 -241 -179 -87 -174 -19 -370 158 -457
73 -35 200 -37 273 -5 120 54 200 177 200 307 0 214 -177 365 -390 334z"/>
<path d="M1563 2950 c-26 -15 -38 -17 -59 -10 -34 13 -588 13 -636 0 -51 -15
-102 -78 -243 -300 -65 -102 -136 -214 -159 -250 -67 -106 -69 -98 108 -430
81 -151 113 -195 151 -204 21 -5 22 -10 28 -202 4 -109 7 -402 7 -653 0 -414
2 -459 18 -490 26 -52 71 -71 170 -71 99 0 144 16 172 62 19 32 20 49 20 599
l0 567 41 4 c34 3 43 0 49 -17 5 -11 9 -265 9 -565 1 -503 3 -547 19 -580 27
-52 71 -70 170 -70 99 0 144 16 172 62 19 31 20 50 20 335 0 190 4 304 10 308
5 3 10 2 10 -3 0 -13 47 -32 78 -32 39 0 62 19 143 120 39 50 73 90 74 90 2 0
4 -162 4 -359 1 -197 6 -373 11 -390 31 -108 154 -156 243 -96 70 48 71 55 68
376 -1 161 1 289 6 292 5 3 56 15 114 27 57 11 151 29 207 41 57 11 106 18
109 16 2 -3 -5 -67 -17 -143 -34 -220 -35 -245 -14 -290 20 -43 44 -68 87 -90
47 -25 618 -195 674 -201 137 -15 222 133 138 242 -33 44 -48 52 -165 87 -228
70 -266 81 -345 104 -33 9 -63 20 -67 23 -3 3 -2 33 3 66 16 107 37 247 60
389 13 87 20 163 16 200 -6 74 -62 209 -138 333 -72 116 -278 326 -362 369
-51 25 -63 37 -94 94 -160 288 -227 406 -237 412 -6 4 -49 23 -96 42 -47 18
-181 72 -297 120 -117 47 -221 86 -230 86 -10 0 -33 -9 -50 -20z m-297 -41
c32 -6 63 -14 67 -18 4 -4 -9 -37 -30 -73 l-37 -66 -69 2 -68 1 -34 55 c-50
80 -48 86 33 100 68 11 72 11 138 -1z m-18 -239 c5 -115 41 -489 58 -606 6
-39 3 -43 -41 -85 -70 -66 -70 -66 -123 -18 -26 24 -50 48 -54 53 -6 10 -2 50
36 391 9 77 16 172 16 210 0 110 4 117 59 113 l46 -3 3 -55z m385 0 c4 -3 8
-207 8 -453 0 -283 4 -449 11 -453 15 -10 53 32 87 96 l32 59 47 -20 c177 -78
382 55 382 248 0 35 3 63 8 63 4 -1 18 -23 31 -49 l23 -49 -39 -53 c-22 -30
-61 -85 -87 -124 -26 -38 -73 -102 -104 -141 -134 -168 -303 -383 -375 -477
-43 -56 -82 -103 -87 -105 -11 -4 -14 1470 -4 1481 6 5 50 -10 67 -23z m212
-86 c17 -7 68 -29 115 -48 83 -34 86 -36 127 -103 23 -37 43 -72 43 -76 0 -4
-16 4 -35 19 -47 36 -99 53 -165 54 l-55 1 -52 83 c-29 46 -53 86 -53 90 0 8
30 0 75 -20z m508 -956 c49 -58 111 -152 120 -183 6 -18 -2 -22 -91 -38 -184
-35 -334 -67 -344 -74 -26 -15 6 31 99 148 54 68 112 141 127 162 16 20 32 37
36 37 5 0 28 -24 53 -52z"/>
</g>
</svg>
